<?xml version="1.0" encoding="utf-8"?>
<!-- Generator: Adobe Illustrator 25.4.1, SVG Export Plug-In . SVG Version: 6.00 Build 0)  -->
<svg version="1.1" id="Layer_1" xmlns="http://www.w3.org/2000/svg" xmlns:xlink="http://www.w3.org/1999/xlink" x="0px" y="0px"
	 viewBox="0 0 348 104" style="enable-background:new 0 0 348 104;" xml:space="preserve">
<style type="text/css">
	.st0{fill:none;stroke:#353535;stroke-width:0.5;stroke-miterlimit:10;}
	.st1{fill:#292526;}
	.st2{fill:#9C7F1A;}
	.st3{fill-rule:evenodd;clip-rule:evenodd;fill:#9C7F1A;}
	.st4{fill:#706F74;}
	.st5{fill:#151413;}
	.st6{fill:none;stroke:#111111;stroke-width:0.5;stroke-miterlimit:10;}
</style>
<line class="st0" x1="166.8" y1="15.2" x2="166.8" y2="88.8"/>
<g>
	<g>
		<path class="st1" d="M148.1,47.5c-0.9-3.9-3.4-6-7.3-6.4c-2.3-0.2-4.7-0.1-7-0.2c-0.7,0-0.7,0.3-0.7,0.8c0,2.8,0,5.6,0,8.5v8.6
			c0,0.4-0.1,0.8,0.6,0.8c2.1-0.1,4.3,0.1,6.4-0.1c4.2-0.3,6.8-2.2,7.8-5.7C148.5,51.7,148.6,49.5,148.1,47.5z M145.5,53.5
			c-0.9,2.2-2.5,3.4-4.8,3.6c-1,0.1-2,0.2-3,0.2c-2.4,0-2.4,0-2.4-2.4c0-3.7,0-7.4,0-11.2c0-0.7,0.2-0.9,0.9-0.9
			c1.4,0.1,2.9,0,4.3,0.2c2.8,0.3,4.8,1.9,5.4,4.7C146.3,49.8,146.3,51.8,145.5,53.5z"/>
		<path class="st1" d="M108.4,50.8c0.5,0,0.8,0,1.2-0.1c2.1-0.2,3.6-1.3,4-3.1c0.3-1.2,0.3-2.5-0.2-3.7c-0.6-1.6-1.6-2.6-3.4-2.9
			c-1.8-0.2-3.8,0-5.8-0.1c-0.8-0.1-1,0.2-1,1c0,5.4,0,10.8,0,16.2c0,1.5,0,1.5,1.5,1.5c0.6,0,0.7-0.2,0.7-0.8c0-2.4,0-4.7,0-7.1
			c0-0.3-0.1-0.6,0.1-0.9c0.4,0,0.5,0.4,0.7,0.7c1.9,2.5,3.9,4.9,5.8,7.4c0.2,0.3,0.4,0.7,0.9,0.6c0.7,0,1.5,0,2.5,0
			C113.1,56.5,110.8,53.7,108.4,50.8z M106.1,48.7c-0.5,0-0.6-0.2-0.6-0.6c0-0.7,0-1.5,0-2.2v-0.5c0-2.4,0-2.4,2.4-2.3
			c0.4,0,0.8,0.1,1.2,0.1c1.7,0.3,2.4,1.1,2.4,2.7c0,1.6-0.6,2.3-2.4,2.6C108.2,48.7,107.1,48.5,106.1,48.7z"/>
		<path class="st1" d="M93.8,50.8c0.5,0,0.8,0,1.2-0.1c2.1-0.2,3.6-1.3,4-3.1c0.3-1.2,0.3-2.5-0.2-3.7c-0.6-1.6-1.6-2.6-3.4-2.9
			c-1.8-0.2-3.8,0-5.8-0.1c-0.8-0.1-1,0.2-1,1c0,5.4,0,10.8,0,16.2c0,1.5,0,1.5,1.5,1.5c0.6,0,0.7-0.2,0.7-0.8c0-2.4,0-4.7,0-7.1
			c0-0.3-0.1-0.6,0.1-0.9c0.4,0,0.5,0.4,0.7,0.7c1.9,2.5,3.9,4.9,5.8,7.4c0.2,0.3,0.4,0.7,0.9,0.6c0.7,0,1.5,0,2.5,0
			C98.5,56.5,96.2,53.7,93.8,50.8z M91.5,48.7c-0.5,0-0.6-0.2-0.6-0.6c0-0.7,0-1.5,0-2.2v-0.5c0-2.4,0-2.4,2.4-2.3
			c0.4,0,0.8,0.1,1.2,0.1c1.7,0.3,2.4,1.1,2.4,2.7c0,1.6-0.6,2.3-2.4,2.6C93.6,48.7,92.5,48.5,91.5,48.7z"/>
		<path class="st1" d="M35.3,50.8c0.5,0,0.8,0,1.2-0.1c2.1-0.2,3.5-1.2,4-3c0.4-1.4,0.3-2.8-0.2-4.1c-0.6-1.4-1.6-2.3-3.2-2.6
			c-0.8-0.1-1.7-0.1-2.5-0.1c-1.4,0-2.9,0-4.3,0.1c-0.2,1.4-0.1,2.8-0.1,4.3c0,4.3,0,8.6,0,12.9c0,1.5,0,1.4,1.4,1.5
			c0.7,0,0.8-0.3,0.8-0.9c0-2.4,0-4.7,0-7.1c0-0.2-0.1-0.6,0.2-0.8c0.4,0.1,0.5,0.4,0.7,0.7c1.9,2.5,3.8,5,5.8,7.4
			c0.2,0.3,0.4,0.7,0.9,0.6c0.7,0,1.5,0,2.5,0C40,56.5,37.7,53.7,35.3,50.8z M32.4,45.8v-0.5c0-2.3,0-2.4,2.3-2.3
			c0.5,0,0.9,0.1,1.3,0.2c1.7,0.3,2.4,1.1,2.4,2.7c0,1.6-0.6,2.3-2.4,2.6c-0.1,0-0.3,0.1-0.4,0.1C32.4,49,32.4,49,32.4,45.8z"/>
		<path class="st1" d="M22.7,41c-2-0.3-4-0.1-5.9-0.2c-0.7,0-0.9,0.2-0.9,0.9c0,2.8,0,5.6,0,8.5c0,2.8,0.1,5.6,0,8.5
			c0,1.1,0.6,0.8,1.2,0.8s1.1,0.2,1.1-0.8c-0.1-2.2,0-4.5,0-6.7c0-0.7,0.2-0.9,0.9-0.9c1.2,0,2.4,0.1,3.6-0.2
			c2.4-0.4,3.8-2.2,3.8-4.9C26.6,43.2,25.2,41.5,22.7,41z M24.1,46.2c-0.1,1.5-0.7,2.3-2.2,2.5c-0.1,0-0.1,0-0.2,0
			c-3.5,0.6-3.5,0.6-3.5-2.8v-1.1c0-1.9,0-1.9,1.9-1.9c0.5,0,1,0.1,1.4,0.2C23.4,43.5,24.2,44.5,24.1,46.2z"/>
		<path class="st1" d="M55.2,58.4c-0.1,0.6,0.2,1.2-0.9,1.2c-2.7-0.1-5.4-0.1-8.2,0c-0.7,0-0.9-0.2-0.9-0.9c0-2.8,0-5.6,0-8.5
			c0-2.8,0-5.6,0-8.5c0-0.7,0.1-0.9,0.8-0.9c2.8,0,5.5,0.1,8.3,0c1,0,0.7,0.6,0.8,1.1c0,0.6,0.1,1-0.8,1c-2-0.1-4,0-6.1,0
			c-0.7,0-0.8,0.2-0.8,0.8c0,1.2,0,2.4,0,3.7c0,0.6,0.2,0.8,0.8,0.8c2.1,0,4.1,0,6.2,0c1,0,0.8,0.5,0.7,1.1c0,0.5,0.3,1.1-0.7,1.1
			c-2.1-0.1-4.1,0-6.2,0c-0.6,0-0.8,0.1-0.8,0.7c0,1.9,0,3.8,0,5.6c0,0.6,0.2,0.7,0.8,0.7c2,0,4,0,6,0
			C55.1,57.4,55.3,57.5,55.2,58.4z"/>
		<path class="st1" d="M84.4,58.4c-0.1,0.6,0.2,1.2-0.9,1.2c-2.7-0.1-5.4-0.1-8.2,0c-0.7,0-0.9-0.2-0.9-0.9c0-2.8,0-5.6,0-8.5
			c0-2.8,0-5.6,0-8.5c0-0.7,0.1-0.9,0.8-0.9c2.8,0,5.5,0.1,8.3,0c1,0,0.7,0.6,0.8,1.1c0,0.6,0.1,1-0.8,1c-2-0.1-4,0-6.1,0
			c-0.7,0-0.8,0.2-0.8,0.8c0,1.2,0,2.4,0,3.7c0,0.6,0.2,0.8,0.8,0.8c2.1,0,4.1,0,6.2,0c1,0,0.8,0.5,0.7,1.1c0,0.5,0.3,1.1-0.7,1.1
			c-2.1-0.1-4.1,0-6.2,0c-0.6,0-0.8,0.1-0.8,0.7c0,1.9,0,3.8,0,5.6c0,0.6,0.2,0.7,0.8,0.7c2,0,4,0,6,0
			C84.3,57.4,84.5,57.5,84.4,58.4z"/>
		<path class="st1" d="M128.3,58.4c0,0.5,0.3,1.2-0.8,1.1c-2.8-0.1-5.6,0-8.4,0c-0.6,0-0.8-0.2-0.7-0.8c0-2.9,0-5.8,0-8.7
			c0-2.8,0-5.6,0-8.4c0-0.7,0.2-0.9,0.9-0.9c2.8,0,5.5,0.1,8.3,0c1.1,0,0.7,0.6,0.8,1.1c0.1,0.6,0.1,1-0.8,1c-2-0.1-4,0-6,0
			c-0.8,0-0.9,0.2-0.9,0.9c0.1,1.2,0,2.4,0,3.5c0,0.6,0.2,0.8,0.8,0.8c2.1,0,4.1,0,6.2,0c1,0,0.7,0.6,0.7,1.1s0.2,1.1-0.7,1.1
			c-2.1-0.1-4.1,0-6.2,0c-0.6,0-0.8,0.2-0.8,0.8c0,1.9,0,3.8,0,5.6c0,0.6,0.3,0.7,0.8,0.7c2,0,4,0,6.1,0
			C128.4,57.4,128.4,57.8,128.3,58.4z"/>
		<path class="st1" d="M69.9,49.2c0,1-0.3,1.1-1.2,1.1c-1.8-0.1-3.7,0-5.5,0c-0.9,0-1,0.3-1,1.1c0,2.4,0,4.9,0,7.3
			c0,1-0.5,0.9-1.1,0.9s-1.2,0.3-1.2-0.8c0.1-2.9,0-5.7,0-8.6c0-2.8,0-5.6,0-8.5c0-0.6,0.1-0.8,0.7-0.8c2.8,0,5.6,0,8.5,0
			c0.9,0,0.7,0.6,0.7,1c0,0.5,0.3,1.1-0.7,1.1c-2.1-0.1-4.1,0-6.2,0c-0.6,0-0.9,0.2-0.8,0.8c0.1,1.1,0.1,2.3,0,3.4c0,0.8,0.1,1,1,1
			c1.9-0.1,3.8,0,5.6,0C69.6,48.2,69.9,48.2,69.9,49.2z"/>
	</g>
	<g>
		<path class="st1" d="M91.6,81.1c0,0.3,0.1,0.6-0.2,1c-4.4-4.7-8.9-9.3-13.3-14c-0.3,0.3-0.2,0.6-0.2,0.9c0,4,0,7.9,0,11.9
			c0,0.9-0.4,1-1.1,0.9c-0.7,0-1.2,0.1-1.2-1c0.1-5.8,0-11.6,0-17.4c0-0.3-0.1-0.6,0.2-0.9c4.4,4.9,8.9,9.7,13.3,14.5
			c0.3-0.4,0.2-0.7,0.2-1.1c0-3.9,0-7.9,0-11.8c0-0.9,0.3-1.1,1.1-1c0.7,0,1.2,0,1.2,1C91.5,69.8,91.6,75.4,91.6,81.1z"/>
		<path class="st1" d="M116.8,73c0.5,0,0.9,0,1.2-0.1c2.1-0.2,3.5-1.3,4-3c0.3-1.3,0.3-2.6-0.2-3.9c-0.6-1.5-1.6-2.5-3.3-2.7
			c-2-0.3-4-0.1-6.1-0.2c-0.7,0-0.8,0.2-0.8,0.8c0,5.6,0,11.3,0,16.9c0,1.2,0.7,0.8,1.3,0.9c0.7,0.1,1-0.1,1-0.9
			c-0.1-2.4,0-4.7,0-7.1c0-0.2-0.2-0.6,0.2-0.7c0.4,0.1,0.5,0.5,0.7,0.7c1.7,2.2,3.6,4.3,5.1,6.6c1,1.6,2.3,1.5,3.9,1.3
			C121.5,78.8,119.2,76,116.8,73z M114.5,70.9c-0.5,0-0.6-0.2-0.6-0.6c0-0.7,0-1.5,0-2.2v-0.7c0-2.1,0-2.1,2.1-2.1
			c0.5,0,1,0.1,1.6,0.2c2,0.3,3,2.3,2.1,4.1c-0.3,0.7-0.9,1-1.7,1.1C116.8,71,115.6,70.9,114.5,70.9z"/>
		<path class="st1" d="M51.3,73c0.5,0,0.9,0,1.2-0.1c2-0.2,3.4-1.2,3.9-2.9c0.4-1.5,0.3-2.9-0.3-4.3c-0.6-1.3-1.6-2.2-3.1-2.4
			c-2.2-0.3-4.3-0.1-6.5-0.2c-0.5,0-0.5,0.3-0.5,0.6c0,5.8,0,11.6,0,17.4c0,0.2-0.1,0.6,0.2,0.6c0.6,0.1,1.3,0.1,1.9,0
			c0.4-0.1,0.1-0.8,0.1-1.2c0-2.5,0-5,0-7.6c0.5,0.1,0.7,0.5,0.9,0.7c1.8,2.3,3.5,4.5,5.3,6.8c1.1,1.4,1.8,1.7,3.7,1.2
			C55.9,78.8,53.6,76,51.3,73z M49,70.9c-0.5,0-0.6-0.2-0.6-0.7c0-0.7,0-1.5,0-2.2v-0.3c0-2.6,0-2.6,2.6-2.4c0.4,0,0.8,0.1,1.2,0.2
			c1.6,0.3,2.2,1.1,2.2,2.8c0,1.5-0.6,2.2-2.2,2.5C51.1,71,50,70.9,49,70.9z"/>
		<path class="st1" d="M22.8,63.5c-2-0.3-4-0.1-5.9-0.2c-0.7,0-0.9,0.2-0.9,0.9c0,2.8,0,5.6,0,8.3c0,2.9,0,5.7,0,8.6
			c0,1.1,0.6,0.8,1.2,0.8s1.1,0.2,1.1-0.8c-0.1-2.3,0-4.5,0-6.8c0-0.6,0.2-0.8,0.8-0.8c1.3,0,2.5,0.1,3.8-0.2
			c2.4-0.4,3.9-2.2,3.9-4.9C26.6,65.6,25.2,63.9,22.8,63.5z M24.1,68.5c0,1.4-0.6,2.2-1.9,2.5c-1.2,0.3-2.3,0.3-3.5,0.3
			c-0.4,0-0.5-0.2-0.5-0.6c0-0.8,0-1.7,0-2.5s0-1.6,0-2.4c0-0.3,0-0.6,0.5-0.6c1.3,0,2.5,0,3.7,0.4C23.6,66.1,24.2,67,24.1,68.5z"/>
		<path class="st1" d="M99.1,73.4c0.1,1.8,0,3.7,0,5.5c0,0.6,0.2,0.8,0.8,0.7c2.1,0,4.1,0,6.2,0c1,0,0.7,0.6,0.7,1.1
			s0.2,1.1-0.7,1.1c-2.8-0.1-5.6,0-8.4,0c-0.7,0-0.8-0.3-0.8-0.8c0-2.9,0-5.7,0-8.6c0-2.8,0-5.6,0-8.4c0-0.6,0.1-0.9,0.8-0.9
			c2.8,0.1,5.5,0.1,8.3,0c0.9,0,0.8,0.4,0.8,1c0,0.5,0.2,1.2-0.8,1.1c-2-0.1-4,0-6.1,0c-0.6,0-0.9,0.1-0.8,0.8
			c0.1,1.2,0.1,2.4,0,3.7c0,0.7,0.3,0.8,0.9,0.8c1.9,0,3.8,0,5.7,0c0.7,0,1.3-0.1,1.2,1c0,1-0.3,1.1-1.2,1.1c-1.9-0.1-3.8,0-5.7,0
			C99.3,72.6,99,72.8,99.1,73.4z"/>
		<path class="st1" d="M34.7,63.2c-2.9,6.3-5.7,12.4-8.5,18.6c0.5,0,0.9,0,1.2,0c0.9,0.2,1.4-0.2,1.7-1.1c0.4-1.3,1.1-2.6,1.6-3.8
			c0.2-0.5,0.4-0.7,1-0.7c2,0,4,0,6,0c0.5,0,0.8,0.1,0.9,0.6c0.4,1.1,0.9,2.2,1.4,3.3c0.8,1.9,0.8,1.9,3.2,1.7
			C40.4,75.6,37.6,69.5,34.7,63.2z M31.8,74c1-2.1,1.9-4.1,2.9-6.2c1,2.2,2,4.2,2.9,6.2H31.8z"/>
		<path class="st1" d="M71.5,65.3c-1.2,0-2.4,0.1-3.6,0c-0.9-0.1-1.2,0.1-1.2,1.1c0.1,4.8,0,9.6,0.1,14.4c0,0.9-0.3,1.1-1.1,1
			c-0.8,0-1.2,0-1.2-1.1c0.1-2.4,0-4.9,0-7.3s0-4.8,0-7.2c0-0.8-0.2-1-1-1c-1.2,0.1-2.4,0-3.7,0c-0.8,0-0.7-0.5-0.6-0.9
			c0.1-0.4-0.5-1.2,0.6-1.2c3.9,0,7.7,0,11.6,0c0.9,0,0.6,0.6,0.6,1C72,64.6,72.5,65.3,71.5,65.3z"/>
	</g>
	<g>
		<g>
			<path class="st2" d="M29.8,34V22.2h2.9v9.5h9V34H29.8z"/>
			<path class="st2" d="M58.2,28c0,1.7-0.7,3.2-2,4.3c-0.7,0.6-1.6,1.1-2.6,1.4c-1,0.3-2.1,0.5-3.3,0.5S48,34.1,47,33.8
				s-1.9-0.8-2.6-1.4c-0.7-0.6-1.2-1.2-1.5-1.9s-0.5-1.5-0.5-2.4s0.2-1.6,0.5-2.4c0.3-0.7,0.8-1.4,1.5-1.9c0.7-0.6,1.6-1.1,2.7-1.4
				c1-0.3,2.1-0.5,3.3-0.5s2.3,0.2,3.3,0.5s1.9,0.8,2.7,1.4C57.5,24.8,58.2,26.3,58.2,28z M55.2,28c0-0.6-0.1-1.1-0.4-1.6
				c-0.2-0.5-0.6-0.9-1-1.2s-1-0.6-1.6-0.8c-0.6-0.2-1.3-0.3-2.1-0.3s-1.5,0.1-2.1,0.3s-1.2,0.5-1.6,0.8c-0.4,0.3-0.8,0.8-1,1.2
				C45.2,27,45,27.5,45,28c0,0.6,0.1,1.1,0.3,1.6s0.6,0.9,1,1.2c0.4,0.3,1,0.6,1.6,0.8S49.2,32,50,32s1.5-0.1,2.1-0.3
				c0.6-0.2,1.2-0.5,1.6-0.8c0.4-0.3,0.8-0.8,1-1.2S55.2,28.7,55.2,28z"/>
			<path class="st2" d="M71.4,22.7c0.9,0.3,1.6,0.7,2.2,1.2s1.1,1.2,1.4,1.9c0.3,0.7,0.5,1.6,0.5,2.5c0,1.7-0.7,3.1-2.1,4.3
				c-0.6,0.5-1.3,0.8-2.1,1.1c-0.8,0.3-1.6,0.4-2.5,0.4h-8.3V22.2h7.9C69.5,22.2,70.5,22.3,71.4,22.7z M70.4,31.2
				c0.6-0.3,1-0.6,1.4-1.1c0.5-0.6,0.7-1.3,0.7-2c0-0.5-0.1-1-0.3-1.5c-0.2-0.5-0.5-0.9-0.8-1.2c-0.3-0.3-0.8-0.6-1.2-0.8
				c-0.5-0.2-1-0.3-1.6-0.3h-5.2v7.3h5.2C69.2,31.7,69.8,31.5,70.4,31.2z"/>
			<path class="st2" d="M89.5,34v-5H81v5h-2.9V22.2H81v4.3h8.5v-4.3h2.9V34H89.5z"/>
			<path class="st2" d="M107.3,34l-1.3-2.5h-7.5L97,34h-2.9l6.2-11.7h3.5l6.3,11.7H107.3z M102.1,24.3l-2.6,4.8h5.2L102.1,24.3z"/>
		</g>
		<g>
			<rect x="15.9" y="33" class="st3" width="7.7" height="1.2"/>
			<rect x="15.9" y="22.2" class="st3" width="7.7" height="1.2"/>
			<rect x="15.9" y="24.8" class="st3" width="7.7" height="1.2"/>
			<rect x="15.9" y="27.7" class="st3" width="7.7" height="1.2"/>
			<rect x="15.9" y="30.3" class="st3" width="7.7" height="1.2"/>
		</g>
	</g>
</g>
<g>
	<g>
		<g>
			<g>
				<path class="st4" d="M180,64.4v-24h14.2c7.8,0,12.7,4.7,12.7,12.3c0,3.4-1.2,6.2-3.5,8.5c-2.1,2-5.2,3.4-8.6,3.4L180,64.4
					L180,64.4z M195.2,61.7c2.5,0,4.7-1,6.2-2.7c1.5-1.6,2.3-3.9,2.3-6.3c0-5.7-3.8-9.4-9.2-9.4H183v18.6L195.2,61.7L195.2,61.7z"/>
				<path class="st4" d="M206.6,52.7c0,3.3-1.2,6-3.4,8.2c-2,2-5,3.3-8.2,3.3h-14.7V40.7h13.9C201.9,40.7,206.6,45.3,206.6,52.7z
					 M201.7,59.3c1.5-1.7,2.5-4.1,2.5-6.6c0-5.8-3.8-9.7-9.5-9.7h-12.1V62h12.8C197.8,62,199.9,61,201.7,59.3z"/>
			</g>
			<g>
				<rect x="215.1" y="40.4" class="st4" width="2.9" height="24"/>
				<path class="st4" d="M215.5,64V40.7h2v23.3L215.5,64L215.5,64z"/>
			</g>
			<g>
				<polygon class="st4" points="238.1,64.4 226.2,40.4 229.2,40.4 239.8,61.7 250.5,40.4 253.5,40.4 241.7,64.4 				"/>
				<path class="st4" d="M241.4,64h-3.3l-11.5-23.3h2.5l10.9,21.5l10.8-21.5h2.5L241.4,64z"/>
			</g>
			<g>
				<rect x="261.8" y="40.4" class="st4" width="2.9" height="24"/>
				<path class="st4" d="M262.1,64V40.7h2v23.3L262.1,64L262.1,64z"/>
			</g>
			<g>
				<polygon class="st4" points="294.8,64.4 275.5,43.6 275.5,64.4 272.8,64.4 272.8,40.4 276.4,40.4 295.4,61.1 295.4,40.4 
					298,40.4 298,64.4 				"/>
				<path class="st4" d="M294.9,64l-19.7-21.2V64h-2V40.7h3.1l19.6,21.2V40.7h2v23.3L294.9,64L294.9,64z"/>
			</g>
			<g>
				<path class="st4" d="M320.8,65c-3.8,0-7.4-1.2-9.9-3.4c-3.1-2.5-4.4-5.6-4.4-9.4s1.4-6.9,4.4-9.4c2.6-2,6.1-3.4,9.8-3.4
					s7.2,1.2,9.8,3.4c3.1,2.5,4.4,5.6,4.4,9.4s-1.4,7-4.4,9.4C328,63.8,324.7,65,320.8,65z M320.8,42.3c-3.1,0-5.8,1-7.9,2.5
					c-2.5,1.9-3.7,4.4-3.7,7.6c0,6.1,4.4,10,11.3,10c6.8,0,11.4-4,11.4-10c0-3.2-1.2-5.6-3.7-7.6C326.5,43.2,323.6,42.3,320.8,42.3z
					"/>
				<path class="st4" d="M330.4,61.6c-2.5,1.9-5.8,3.3-9.7,3.3c-3.8,0-7.4-1.2-9.7-3.3c-3-2.3-4.3-5.4-4.3-9.2s1.4-6.8,4.3-9.1
					c2.5-2,5.9-3.3,9.7-3.3c3.8,0,7.1,1.2,9.7,3.3c3,2.3,4.3,5.5,4.3,9.1C334.8,56.2,333.2,59.1,330.4,61.6z M328.8,44.6
					c-2-1.5-5-2.6-8-2.6c-3.2,0-6,1.1-8,2.6c-2.5,1.9-3.8,4.7-3.8,7.8c0,6.2,4.7,10.4,11.6,10.4c7.1,0,11.7-4.1,11.7-10.4
					C332.5,49.2,331.2,46.7,328.8,44.6z"/>
			</g>
		</g>
		<g>
			<path class="st5" d="M209.5,76.1v12h-2.3v-7.9l-3.8,5.3l-3.8-5.3v8.1h-2.3v-12h2.2l4,5.6l4-5.6L209.5,76.1L209.5,76.1z"/>
			<path class="st5" d="M224.5,85.7H219l-1.1,2.6h-2.3l4.7-12h3.1l4.7,12h-2.3L224.5,85.7z M223.6,83.5l-1.8-5.1l-1.8,5.1H223.6z"/>
			<path class="st5" d="M242.1,78.5H238v10h-2.3v-10h-4.1v-2.1h10.5V78.5z"/>
			<path class="st5" d="M258.5,76.1v7.1c0,1.6-0.5,2.9-1.5,3.8c-0.8,1-2.2,1.5-3.8,1.5c-1.6,0-3-0.5-3.8-1.5c-0.8-1-1.4-2.2-1.4-3.8
				v-7.1h2.3v7.1c0,0.8,0.3,1.6,0.7,2.2c0.5,0.7,1.2,0.8,1.9,0.8s1.6-0.3,2.1-0.8c0.5-0.7,0.7-1.4,0.7-2.2v-7.1H258.5z"/>
			<path class="st5" d="M275.9,76.1v12h-1.8l-6-7.8v7.9h-2.3v-12h1.8l6,7.9v-7.9L275.9,76.1L275.9,76.1z"/>
			<path class="st5" d="M294.9,82.8c0,1.6-0.7,3.1-1.6,4.2c-1.1,1.1-2.6,1.6-4.5,1.6c-1.8,0-3.4-0.7-4.5-1.8
				c-1.4-1.2-1.8-2.7-1.8-4.5c0-1.8,0.7-3.1,1.8-4.5c1.2-1.4,2.7-1.8,4.5-1.8c1.5,0,2.6,0.4,3.7,1.1c1.1,0.7,1.6,1.6,2.1,2.6
				l-2.2,0.7c-0.7-1.5-1.8-1.9-3.6-1.9c-1.2,0-1.9,0.4-2.9,1.2c-0.8,0.8-1.1,1.6-1.1,2.9s0.4,2.1,1.1,2.9c0.7,0.7,1.8,1.2,3.1,1.2
				c1,0,1.8-0.3,2.3-0.7c0.5-0.4,1-1.2,1.1-1.8h-3.7v-1.9h6L294.9,82.8L294.9,82.8z"/>
			<path class="st5" d="M308.7,85.7h-5.5l-1.1,2.6h-2.3l4.7-12h3.1l4.7,12h-2.3L308.7,85.7z M308,83.5l-1.8-5.1l-1.8,5.1H308z"/>
		</g>
	</g>
	<g>
		<g>
			<path class="st2" d="M208.2,30.1V15.6h3.6v11.6h11.1v2.9C222.8,30.1,208.2,30.1,208.2,30.1z"/>
			<path class="st2" d="M243.1,22.8c0,2.1-0.8,3.9-2.4,5.3c-0.8,0.7-2,1.4-3.2,1.7c-1.3,0.3-2.5,0.6-4,0.6s-2.9-0.1-4-0.5
				c-1.3-0.3-2.3-1-3.2-1.7c-0.8-0.7-1.5-1.5-1.8-2.3s-0.6-1.8-0.6-3s0.2-2,0.6-3c0.3-0.8,1-1.7,1.8-2.3c0.8-0.7,2-1.4,3.3-1.7
				c1.3-0.3,2.5-0.6,4-0.6c1.5,0,2.9,0.2,4,0.6c1.3,0.3,2.3,1,3.3,1.7C242.2,18.9,243.1,20.7,243.1,22.8z M239.4,22.8
				c0-0.7-0.1-1.4-0.5-2c-0.2-0.6-0.7-1.2-1.3-1.5c-0.5-0.3-1.3-0.7-2-1c-0.7-0.2-1.6-0.3-2.5-0.3s-1.8,0.1-2.5,0.3
				c-0.7,0.2-1.5,0.6-2,1c-0.5,0.3-1,1-1.3,1.5c-0.2,0.7-0.5,1.4-0.5,2c0,0.7,0.1,1.4,0.3,2s0.7,1.2,1.3,1.5c0.5,0.3,1.3,0.7,2,1
				c0.7,0.2,1.6,0.5,2.5,0.5c0.9,0,1.8-0.1,2.5-0.3c0.7-0.2,1.5-0.6,2-1c0.5-0.3,1-1,1.3-1.5S239.4,23.6,239.4,22.8z"/>
			<path class="st2" d="M259.4,16.2c1.2,0.3,2,0.8,2.7,1.5c0.7,0.6,1.4,1.5,1.7,2.3c0.3,0.8,0.6,2,0.6,3.1c0,2.1-0.8,3.8-2.5,5.3
				c-0.7,0.6-1.6,1-2.5,1.4c-1,0.3-2,0.5-3.1,0.5H246V15.6h9.7C256.9,15.6,258.2,15.7,259.4,16.2z M258.1,26.7
				c0.7-0.3,1.3-0.7,1.7-1.4c0.6-0.7,0.8-1.6,0.8-2.4c0-0.6-0.1-1.3-0.3-1.8c-0.2-0.6-0.6-1.2-1-1.5c-0.3-0.3-1-0.7-1.5-1
				c-0.6-0.2-1.3-0.3-2-0.3h-6.3v9h6.3C256.6,27.3,257.4,27,258.1,26.7z"/>
			<path class="st2" d="M281.5,30.1V24H271v6.1h-3.5V15.6h3.6v5.3h10.5v-5.3h3.6v14.5C285.2,30.1,281.5,30.1,281.5,30.1z"/>
			<path class="st2" d="M303.4,30.1l-1.6-3.1h-9.2l-1.8,3.1h-3.6l7.6-14.4h4.3l7.7,14.4H303.4z M297,18.3l-3.2,5.9h6.3L297,18.3z"/>
		</g>
	</g>
	<line class="st6" x1="178.9" y1="71.5" x2="336" y2="71.5"/>
</g>
</svg>
